<?xml version="1.0" standalone="no"?>
<!DOCTYPE svg PUBLIC "-//W3C//DTD SVG 20010904//EN"
 "http://www.w3.org/TR/2001/REC-SVG-20010904/DTD/svg10.dtd">
<svg version="1.0" xmlns="http://www.w3.org/2000/svg"
 width="8000.000000pt" height="8000.000000pt" viewBox="0 0 8000.000000 8000.000000"
 preserveAspectRatio="xMidYMid meet">

<g transform="translate(0.000000,8000.000000) scale(0.100000,-0.100000)"
fill="#000000" stroke="none">
<path d="M72157 56160 c-27 -5 -68 -17 -90 -26 -34 -15 -86 -19 -282 -25 -299
-9 -447 -22 -505 -44 -50 -19 -139 -24 -445 -26 -120 0 -234 -6 -285 -14 -117
-19 -234 -34 -370 -45 -76 -6 -140 -18 -190 -35 -41 -14 -111 -30 -155 -36
-44 -5 -114 -21 -155 -34 -85 -28 -151 -39 -365 -60 -82 -8 -190 -23 -240 -34
-49 -11 -148 -27 -220 -35 -90 -10 -150 -23 -194 -41 -36 -15 -135 -40 -222
-55 -86 -16 -185 -40 -220 -54 -62 -24 -160 -50 -244 -66 -22 -4 -74 -19 -116
-33 -42 -14 -112 -31 -155 -36 -44 -6 -115 -24 -160 -40 -44 -16 -114 -33
-155 -37 -42 -4 -104 -19 -144 -35 -49 -19 -98 -30 -165 -35 -62 -4 -123 -17
-176 -35 -57 -20 -117 -31 -210 -39 -71 -6 -165 -20 -209 -30 -44 -10 -117
-21 -163 -24 -46 -3 -122 -16 -170 -30 -48 -13 -130 -30 -182 -36 -52 -7 -129
-23 -170 -37 -41 -13 -104 -31 -140 -39 -36 -8 -93 -24 -127 -34 -35 -11 -116
-27 -180 -36 -65 -8 -121 -18 -125 -20 -4 -2 -43 -9 -87 -14 -44 -6 -99 -18
-123 -26 -24 -9 -93 -22 -153 -29 -61 -7 -155 -24 -211 -38 -55 -14 -136 -30
-180 -36 -43 -6 -106 -20 -139 -31 -33 -12 -122 -30 -197 -41 -76 -11 -171
-30 -211 -44 -41 -13 -110 -27 -153 -30 -47 -4 -109 -18 -154 -35 -41 -15
-106 -30 -144 -34 -38 -4 -95 -16 -125 -27 -31 -11 -115 -31 -187 -44 -72 -13
-182 -38 -245 -54 -63 -16 -145 -34 -182 -41 -38 -6 -103 -22 -146 -35 -42
-14 -106 -29 -141 -34 -36 -5 -104 -21 -153 -35 -48 -14 -123 -30 -168 -36
-44 -5 -110 -19 -147 -30 -36 -11 -118 -27 -182 -36 -63 -8 -153 -26 -200 -39
-47 -14 -125 -31 -175 -39 -49 -8 -133 -26 -185 -39 -52 -14 -126 -28 -165
-32 -38 -3 -101 -17 -140 -30 -38 -13 -99 -31 -135 -40 -36 -9 -99 -27 -141
-40 -43 -13 -140 -31 -225 -40 -82 -9 -176 -24 -209 -35 -33 -10 -98 -26 -145
-35 -142 -26 -377 -92 -540 -151 -153 -55 -253 -83 -298 -84 -13 0 -92 -16
-175 -36 -431 -101 -498 -117 -573 -140 -45 -13 -128 -33 -184 -44 -55 -12
-124 -30 -153 -41 -28 -11 -98 -31 -155 -45 -57 -13 -129 -35 -160 -48 -71
-30 -229 -75 -386 -111 -65 -15 -133 -33 -150 -40 -17 -7 -78 -23 -136 -35
-58 -12 -136 -34 -175 -49 -38 -16 -106 -36 -150 -46 -93 -21 -122 -34 -190
-85 -34 -25 -73 -43 -120 -54 -38 -10 -95 -28 -125 -42 -30 -14 -98 -36 -151
-49 -54 -13 -115 -33 -136 -43 -21 -11 -81 -29 -132 -41 -52 -13 -108 -30
-125 -38 -17 -9 -68 -28 -114 -44 -47 -16 -103 -39 -126 -52 -22 -14 -66 -32
-96 -42 -30 -10 -77 -29 -103 -42 -27 -13 -83 -30 -126 -38 -42 -7 -102 -25
-134 -39 -32 -14 -85 -30 -119 -36 -34 -7 -82 -22 -107 -35 -25 -12 -83 -30
-128 -38 -44 -9 -94 -22 -110 -31 -16 -8 -67 -24 -113 -35 -46 -12 -120 -41
-164 -65 -173 -92 -243 -119 -346 -128 -62 -5 -131 -20 -200 -42 -58 -19 -130
-40 -161 -46 -30 -6 -80 -24 -110 -40 -157 -87 -363 -181 -424 -195 -94 -22
-124 -36 -213 -98 -42 -30 -131 -83 -197 -119 -66 -36 -133 -73 -150 -82 -16
-9 -55 -25 -86 -36 -31 -11 -87 -41 -125 -65 -41 -26 -104 -56 -154 -71 -47
-14 -108 -39 -135 -54 -28 -16 -73 -34 -100 -40 -58 -13 -111 -42 -179 -98
-26 -22 -60 -46 -74 -53 -15 -8 -57 -31 -93 -51 -36 -20 -92 -44 -125 -54 -89
-25 -124 -46 -225 -134 -119 -103 -184 -139 -271 -152 -41 -6 -80 -19 -97 -32
-16 -11 -47 -34 -70 -51 -22 -16 -39 -35 -36 -41 4 -14 -88 -59 -107 -51 -18
6 -81 -20 -74 -31 3 -5 -27 -24 -67 -43 -39 -19 -98 -58 -131 -88 -34 -29 -79
-62 -101 -73 -22 -12 -66 -38 -97 -60 -32 -21 -66 -41 -75 -45 -19 -7 -142
-80 -208 -122 -21 -14 -73 -61 -115 -103 -49 -50 -93 -85 -125 -99 -28 -12
-63 -31 -80 -44 -16 -12 -48 -31 -70 -43 -23 -11 -77 -50 -120 -87 -44 -36
-106 -80 -138 -97 -31 -17 -96 -69 -145 -116 -49 -48 -109 -94 -137 -108 -33
-16 -96 -69 -188 -159 -75 -74 -161 -149 -191 -167 -29 -18 -82 -53 -117 -77
-35 -24 -83 -54 -106 -65 -40 -20 -73 -45 -167 -127 -22 -20 -60 -46 -84 -58
-25 -13 -51 -36 -60 -54 -35 -64 -102 -126 -161 -148 -44 -16 -78 -40 -151
-110 -52 -50 -130 -117 -172 -150 -43 -33 -83 -70 -89 -82 -27 -51 -93 -113
-145 -137 -35 -16 -91 -59 -156 -120 -132 -124 -388 -381 -388 -390 0 -4 -28
-29 -62 -56 -35 -26 -93 -77 -130 -113 -36 -35 -75 -69 -85 -74 -10 -5 -32
-24 -49 -41 -17 -17 -45 -43 -61 -58 -18 -16 -35 -44 -40 -65 -7 -32 -14 -39
-44 -46 -47 -11 -237 -193 -269 -257 -14 -27 -77 -99 -160 -180 -98 -97 -146
-152 -169 -196 -29 -56 -114 -149 -389 -429 -27 -27 -75 -93 -108 -145 -32
-52 -88 -124 -124 -161 -81 -82 -132 -144 -154 -187 -9 -18 -44 -68 -77 -113
-33 -44 -67 -96 -76 -117 -8 -20 -26 -50 -39 -65 -13 -16 -24 -33 -24 -39 0
-11 -81 -120 -121 -161 -15 -16 -30 -45 -34 -64 -3 -20 -17 -52 -30 -72 -13
-20 -31 -56 -40 -81 -8 -24 -24 -52 -35 -62 -11 -10 -26 -31 -34 -47 -8 -15
-25 -35 -38 -43 -13 -9 -37 -40 -52 -69 -16 -30 -55 -85 -86 -124 -32 -38 -70
-95 -85 -125 -15 -30 -53 -82 -84 -115 -31 -34 -69 -85 -85 -115 -16 -30 -42
-70 -58 -88 -15 -18 -28 -40 -28 -48 0 -25 -31 -77 -77 -129 -25 -27 -56 -72
-70 -100 -14 -27 -36 -64 -49 -81 -13 -17 -31 -50 -39 -74 -9 -24 -22 -51 -29
-60 -25 -29 -134 -265 -139 -303 -6 -42 -53 -123 -98 -172 -16 -17 -37 -55
-48 -85 -10 -30 -44 -106 -75 -169 -32 -62 -68 -142 -81 -176 -13 -35 -31 -75
-41 -90 -12 -18 -17 -45 -16 -90 1 -58 -3 -73 -53 -170 -56 -111 -91 -163
-137 -205 -15 -14 -37 -52 -48 -84 -11 -33 -35 -86 -54 -120 -18 -34 -53 -104
-76 -156 -24 -52 -53 -107 -66 -122 -12 -15 -36 -57 -53 -93 -18 -37 -47 -89
-66 -117 -19 -28 -35 -57 -35 -64 0 -8 -15 -45 -34 -82 -19 -38 -38 -86 -42
-107 -4 -21 -37 -98 -75 -171 -47 -91 -70 -150 -75 -186 -4 -29 -22 -92 -41
-141 -18 -48 -36 -109 -39 -135 -3 -26 -14 -67 -24 -92 -10 -25 -23 -70 -30
-100 -7 -30 -28 -81 -48 -112 -19 -32 -41 -84 -48 -117 -8 -33 -32 -97 -54
-142 -22 -46 -40 -94 -40 -107 0 -25 -73 -198 -114 -273 -14 -25 -33 -74 -42
-109 -9 -36 -22 -77 -30 -91 -18 -36 -31 -98 -43 -200 -5 -46 -19 -105 -31
-131 -11 -26 -30 -84 -41 -129 -11 -45 -31 -103 -44 -128 -12 -26 -28 -67 -34
-91 -7 -25 -25 -74 -40 -110 -24 -54 -30 -83 -34 -171 -4 -74 -10 -117 -23
-140 -11 -21 -20 -72 -25 -137 -6 -67 -17 -128 -34 -175 -19 -53 -27 -101 -32
-182 -4 -71 -12 -127 -24 -158 -13 -31 -19 -73 -19 -122 0 -91 -14 -97 -69
-33 -60 69 -211 215 -306 295 -131 111 -264 243 -285 283 -24 47 -67 89 -110
109 -45 20 -102 75 -125 120 -9 19 -30 45 -46 58 -15 13 -31 32 -34 42 -3 11
-18 22 -32 26 -29 7 -123 98 -123 118 0 7 -14 23 -31 36 -17 13 -35 36 -40 51
-7 17 -20 31 -35 34 -14 4 -33 20 -42 36 -9 16 -27 34 -40 39 -13 6 -31 24
-40 41 -9 16 -27 35 -39 41 -13 7 -25 20 -28 29 -3 9 -23 31 -44 48 -22 18
-42 41 -46 52 -3 11 -13 20 -21 20 -16 0 -174 153 -174 168 0 5 -26 36 -57 68
-32 33 -107 115 -168 182 -60 68 -143 148 -183 178 -46 35 -77 68 -86 89 -18
42 -96 118 -158 154 -26 15 -87 65 -135 110 -47 46 -117 107 -154 137 -37 29
-80 68 -95 87 -49 59 -202 186 -257 213 -29 15 -77 52 -107 82 -30 30 -77 72
-105 92 -27 20 -61 47 -75 58 -71 61 -112 91 -129 97 -11 3 -24 19 -30 35 -7
20 -17 30 -31 30 -13 0 -28 13 -41 34 -11 19 -33 39 -50 46 -16 7 -34 21 -39
30 -5 10 -39 32 -75 49 -36 16 -68 37 -71 46 -4 9 -22 22 -40 30 -19 8 -39 25
-46 39 -6 15 -18 26 -26 26 -8 0 -29 15 -46 33 -17 18 -57 46 -89 62 -33 15
-61 34 -64 42 -3 7 -20 20 -39 29 -18 9 -36 25 -39 35 -4 11 -20 26 -36 34
-16 9 -35 28 -44 44 -8 16 -25 33 -37 36 -13 4 -34 17 -48 30 -14 12 -45 30
-70 39 -54 21 -80 43 -80 66 0 11 -11 20 -30 23 -16 4 -40 18 -52 32 -12 14
-29 25 -37 25 -34 1 -101 40 -110 64 -6 15 -23 28 -45 36 -20 6 -40 19 -45 28
-5 10 -29 23 -53 29 -54 14 -98 48 -98 74 0 12 -7 19 -20 19 -12 0 -33 12 -48
28 -34 34 -108 82 -127 82 -8 0 -20 8 -27 18 -7 9 -26 23 -41 30 -16 7 -34 26
-40 42 -7 19 -20 31 -38 35 -14 3 -37 17 -49 31 -13 13 -30 24 -37 24 -7 0
-21 4 -31 9 -9 5 -29 14 -44 20 -15 6 -30 21 -33 34 -4 15 -18 28 -39 35 -18
7 -41 21 -51 32 -10 11 -23 20 -28 20 -24 0 -116 52 -121 68 -4 11 -31 27 -71
41 -62 22 -82 36 -84 56 -1 6 -14 13 -31 18 -16 4 -35 16 -43 27 -8 11 -35 26
-61 34 -61 19 -96 42 -96 65 0 11 -12 22 -32 29 -78 26 -123 44 -128 51 -3 4
-36 16 -73 26 -39 10 -72 25 -77 35 -11 21 -138 96 -157 92 -7 -2 -13 2 -13 8
0 6 -11 15 -25 22 -13 6 -29 24 -34 40 -10 28 -14 30 -48 26 -40 -5 -98 17
-122 46 -8 9 -22 16 -32 16 -10 0 -20 4 -23 9 -3 4 -19 11 -36 14 -16 4 -38
16 -47 27 -10 12 -38 30 -63 41 -87 40 -95 45 -94 62 1 12 -11 20 -37 27 -22
6 -45 20 -52 30 -6 11 -22 20 -34 20 -12 0 -25 5 -28 10 -3 6 -25 10 -49 10
-55 0 -104 17 -117 41 -5 11 -20 19 -34 19 -13 0 -26 4 -29 9 -3 5 -22 12 -43
16 -61 11 -111 35 -116 56 -3 10 -13 19 -24 19 -10 0 -38 12 -63 26 -111 64
-172 94 -190 94 -10 0 -23 7 -27 15 -5 8 -37 25 -73 39 -36 13 -78 31 -95 40
-16 9 -37 16 -46 16 -8 0 -34 14 -57 31 -25 19 -71 38 -114 48 -40 10 -95 29
-123 43 -29 15 -84 30 -130 37 -44 6 -109 22 -143 37 -35 14 -80 28 -100 31
-21 3 -59 22 -87 43 -27 20 -63 42 -80 47 -16 6 -52 24 -79 42 -28 17 -61 31
-74 31 -13 0 -55 14 -93 30 -50 22 -102 35 -191 46 -92 12 -133 22 -165 41
-27 15 -74 29 -130 38 -49 7 -104 22 -123 33 -19 11 -69 29 -110 40 -41 10
-92 30 -112 44 -29 20 -60 29 -140 39 -75 9 -118 20 -158 40 -39 21 -82 32
-150 40 -60 7 -115 20 -150 36 -45 21 -83 28 -215 39 -138 11 -167 16 -209 38
-31 16 -66 26 -92 26 -83 0 -249 22 -279 38 -47 24 -122 41 -215 48 -47 4
-103 13 -125 21 -57 20 -210 43 -285 43 -107 0 -282 21 -335 40 -91 32 -119
39 -215 50 -55 7 -118 22 -150 35 -65 28 -233 45 -448 45 -85 0 -157 5 -191
14 -31 8 -103 19 -161 25 -58 6 -141 16 -185 21 -44 5 -159 12 -255 16 -161 6
-182 9 -265 38 l-90 31 -1430 1 c-786 0 -1470 -3 -1519 -7 -49 -5 -105 -14
-125 -20 -25 -9 -138 -13 -366 -14 -279 -2 -338 -5 -382 -19 -41 -13 -100 -17
-255 -20 -180 -3 -208 -5 -248 -24 -62 -28 -137 -40 -340 -52 -121 -7 -198
-17 -250 -31 -70 -20 -91 -21 -343 -16 -279 5 -356 -1 -427 -38 -17 -9 -73
-20 -123 -26 -109 -11 -177 -26 -232 -49 -22 -10 -79 -20 -126 -24 -48 -3
-118 -16 -155 -27 -63 -20 -90 -22 -319 -20 -321 1 -388 -6 -491 -52 -45 -20
-111 -40 -154 -46 -41 -7 -104 -25 -140 -42 -52 -24 -92 -34 -195 -46 -96 -11
-147 -22 -195 -43 -51 -22 -83 -28 -150 -30 -178 -5 -207 -7 -280 -14 -45 -5
-101 -20 -141 -37 -36 -16 -93 -31 -125 -34 -79 -8 -140 -24 -194 -50 -31 -16
-73 -24 -138 -29 -68 -5 -116 -15 -175 -38 -68 -25 -104 -32 -209 -38 -105 -7
-137 -13 -184 -34 -31 -15 -75 -29 -98 -32 -23 -3 -73 -12 -113 -20 -40 -8
-87 -14 -105 -14 -19 0 -67 -16 -108 -36 -62 -29 -94 -37 -197 -49 -81 -10
-137 -22 -164 -35 -30 -16 -66 -22 -145 -26 -66 -3 -138 -14 -197 -30 -50 -13
-143 -31 -206 -39 -69 -9 -135 -24 -170 -39 -42 -18 -82 -26 -157 -30 -56 -3
-130 -15 -165 -25 -35 -11 -100 -25 -144 -31 -44 -5 -125 -21 -180 -35 -195
-47 -232 -55 -311 -65 -108 -13 -133 -19 -177 -42 -21 -10 -91 -28 -156 -38
-76 -13 -142 -30 -186 -50 -37 -17 -109 -38 -159 -46 -51 -9 -124 -30 -166
-49 -41 -18 -100 -38 -130 -45 -30 -7 -71 -21 -91 -31 -39 -19 -116 -34 -229
-44 -49 -4 -98 -17 -140 -35 -41 -18 -98 -32 -154 -39 -55 -7 -109 -20 -145
-37 -35 -16 -95 -31 -160 -40 -67 -10 -121 -24 -154 -40 -27 -14 -77 -30 -110
-35 -33 -6 -95 -23 -136 -38 -42 -16 -114 -34 -161 -40 -47 -7 -94 -13 -105
-15 -11 -2 -37 -11 -59 -20 -21 -9 -55 -16 -75 -16 -41 0 -215 -41 -246 -57
-11 -6 -65 -19 -120 -28 -55 -9 -125 -28 -155 -41 -30 -13 -89 -30 -132 -38
-42 -8 -99 -26 -127 -40 -27 -14 -83 -31 -123 -37 -40 -6 -120 -26 -178 -45
-58 -20 -132 -43 -165 -53 -34 -10 -89 -33 -124 -51 -50 -25 -89 -35 -173 -46
-65 -9 -126 -23 -150 -35 -26 -13 -82 -25 -168 -34 -84 -10 -151 -23 -192 -39
-35 -14 -93 -29 -129 -35 -36 -5 -90 -21 -119 -36 -29 -14 -79 -31 -112 -36
-33 -5 -90 -23 -125 -39 -45 -21 -82 -30 -117 -30 -57 0 -202 -32 -245 -55
-16 -8 -73 -21 -127 -29 -55 -8 -126 -24 -160 -35 -34 -10 -101 -27 -149 -36
-49 -9 -114 -27 -144 -39 -31 -13 -83 -31 -115 -41 -33 -9 -84 -30 -114 -46
-30 -16 -61 -29 -69 -29 -7 0 -46 -15 -86 -34 -45 -22 -106 -40 -161 -50 -64
-11 -103 -23 -139 -46 -28 -18 -80 -37 -121 -46 -39 -8 -95 -26 -126 -40 -36
-17 -84 -28 -145 -34 -57 -5 -113 -17 -151 -33 -39 -16 -88 -26 -144 -30 -80
-6 -93 -10 -235 -81 -96 -47 -168 -77 -200 -81 -71 -9 -142 -33 -201 -66 -28
-16 -61 -29 -72 -29 -40 0 -178 -38 -227 -62 -28 -14 -63 -28 -80 -32 -38 -10
-113 -44 -145 -66 -14 -10 -45 -23 -70 -30 -25 -7 -65 -22 -90 -35 -25 -12
-78 -30 -119 -40 -40 -10 -92 -28 -115 -40 -25 -14 -82 -29 -146 -39 -63 -10
-118 -25 -140 -38 -19 -11 -59 -29 -88 -39 -29 -10 -66 -27 -82 -39 -16 -11
-48 -27 -71 -35 -24 -9 -58 -27 -76 -41 -18 -14 -53 -31 -78 -39 -25 -7 -61
-25 -79 -39 -19 -14 -53 -30 -75 -35 -38 -8 -64 -23 -214 -120 -29 -18 -69
-40 -91 -47 -21 -8 -53 -27 -71 -43 -22 -19 -55 -33 -104 -44 -69 -16 -76 -20
-186 -120 -63 -57 -135 -114 -161 -127 -25 -14 -94 -69 -153 -125 -58 -55
-129 -120 -156 -145 -106 -95 -255 -255 -260 -281 -3 -14 -22 -41 -41 -60 -20
-19 -45 -51 -55 -72 -11 -21 -27 -41 -35 -44 -23 -9 -42 -53 -64 -155 -14 -63
-29 -101 -44 -118 -13 -14 -29 -35 -35 -48 -33 -63 -46 -491 -22 -702 15 -131
25 -171 57 -220 12 -19 25 -57 29 -85 10 -79 35 -157 59 -190 13 -16 32 -51
44 -77 11 -25 48 -75 82 -110 34 -34 73 -83 85 -108 30 -57 189 -197 265 -233
30 -15 83 -52 117 -82 34 -31 79 -63 99 -71 40 -17 123 -81 161 -126 13 -14
37 -29 53 -33 17 -4 53 -22 80 -41 33 -23 75 -40 122 -50 40 -9 87 -23 103
-32 17 -8 46 -24 66 -34 20 -10 80 -26 135 -34 72 -12 106 -23 130 -41 38 -29
118 -43 247 -43 70 0 99 -5 146 -25 47 -19 82 -25 169 -29 101 -5 112 -7 135
-30 29 -29 52 -33 214 -40 111 -5 127 -8 170 -33 45 -26 58 -28 201 -34 144
-7 155 -9 191 -34 45 -30 123 -44 251 -45 47 0 140 -7 208 -14 106 -12 128
-18 164 -42 41 -29 43 -29 232 -36 105 -3 272 -7 372 -7 178 -1 181 -1 215
-27 59 -45 91 -53 269 -64 163 -11 176 -13 234 -43 l61 -32 360 -3 c377 -4
371 -3 453 -51 41 -24 138 -29 702 -36 413 -6 652 -17 750 -35 125 -23 327
-50 455 -60 55 -5 147 -13 205 -18 58 -6 170 -14 250 -17 121 -6 155 -11 203
-32 83 -34 227 -42 952 -47 573 -4 614 -6 673 -24 56 -18 101 -21 470 -26 528
-8 526 -7 710 -56 27 -7 148 -11 330 -10 158 0 294 0 302 -1 8 0 36 2 63 6 30
5 89 2 160 -8 105 -16 452 -35 737 -42 329 -8 460 -6 645 6 225 14 658 14 840
-1 255 -21 333 -29 425 -39 52 -7 109 -9 127 -6 17 3 64 -1 105 -9 86 -17 585
-27 863 -17 180 6 291 -5 378 -38 45 -18 352 -14 412 5 33 10 85 15 150 14 55
-1 195 2 310 5 647 22 667 22 715 2 63 -26 159 -30 327 -12 80 8 184 15 232
15 47 0 102 5 121 10 20 6 291 13 640 18 730 9 760 9 974 -1 147 -6 177 -10
232 -32 45 -18 81 -25 131 -25 41 0 76 -5 88 -14 13 -8 63 -15 136 -19 64 -3
125 -9 135 -15 86 -43 219 -86 315 -101 36 -6 142 -11 236 -11 163 0 173 -1
228 -26 46 -21 81 -28 183 -36 80 -6 135 -6 151 1 61 23 97 22 154 -5 43 -19
77 -26 140 -29 134 -5 237 -24 271 -50 46 -34 100 -54 193 -70 46 -8 108 -27
141 -44 32 -16 86 -37 120 -46 34 -8 99 -33 145 -55 83 -40 124 -56 297 -115
112 -38 187 -61 252 -75 25 -5 68 -23 95 -39 31 -20 72 -34 118 -41 39 -6 86
-20 105 -32 19 -11 57 -29 85 -40 27 -10 55 -25 60 -32 16 -21 65 -42 135 -60
36 -9 89 -31 119 -48 38 -21 74 -32 115 -36 37 -3 87 -18 130 -38 39 -18 93
-35 120 -40 40 -5 60 -16 100 -53 28 -25 53 -49 56 -52 8 -9 58 -35 170 -88
68 -31 128 -69 170 -105 42 -36 83 -61 115 -71 27 -8 66 -26 86 -39 20 -14 62
-32 93 -41 31 -9 110 -41 176 -71 66 -30 125 -54 132 -54 8 0 46 -16 87 -35
40 -19 88 -35 107 -35 44 0 87 -22 141 -71 24 -22 56 -41 78 -45 38 -7 132
-59 169 -93 36 -32 83 -51 128 -51 54 0 109 -28 168 -86 25 -24 63 -50 85 -57
22 -8 76 -40 120 -72 90 -64 104 -71 191 -89 52 -11 73 -23 132 -72 39 -33 92
-67 120 -77 28 -10 58 -27 68 -38 10 -11 36 -24 59 -30 31 -8 66 -35 154 -119
93 -88 125 -112 172 -129 44 -17 70 -35 113 -82 39 -42 72 -67 108 -81 29 -12
64 -29 78 -38 14 -9 47 -23 73 -30 36 -10 66 -29 114 -74 73 -68 79 -73 147
-102 47 -20 113 -77 317 -271 67 -65 104 -93 121 -93 27 0 103 -45 133 -80 33
-37 127 -105 175 -125 25 -10 62 -34 82 -52 21 -18 49 -35 63 -38 14 -3 37 -7
51 -11 15 -3 54 -31 88 -63 56 -53 208 -142 286 -166 35 -11 96 -54 190 -135
47 -41 97 -74 120 -81 22 -7 70 -38 108 -69 37 -31 94 -71 127 -88 33 -18 103
-71 155 -118 55 -49 117 -96 147 -109 28 -13 80 -50 115 -82 108 -98 140 -124
181 -145 40 -20 169 -120 237 -184 19 -18 64 -46 100 -63 36 -17 93 -55 127
-85 34 -30 79 -60 100 -67 21 -6 52 -23 69 -35 17 -13 49 -30 73 -39 23 -8 82
-41 130 -73 48 -32 102 -64 119 -70 30 -10 155 -108 227 -178 17 -17 49 -37
71 -44 42 -13 80 -40 155 -106 30 -26 67 -48 101 -58 37 -11 71 -32 113 -69
33 -30 85 -66 115 -80 30 -15 85 -53 122 -85 38 -32 85 -64 105 -70 24 -8 80
-50 155 -116 69 -62 128 -107 146 -110 16 -4 38 -15 49 -26 100 -92 147 -128
184 -139 24 -7 69 -34 102 -60 32 -25 72 -56 90 -69 18 -13 43 -34 57 -46 14
-13 45 -31 68 -40 43 -16 90 -48 163 -112 23 -20 53 -35 80 -39 24 -4 56 -18
71 -30 15 -13 50 -31 77 -40 29 -9 77 -40 119 -74 81 -69 102 -81 136 -81 14
0 28 -5 31 -10 3 -6 39 -36 78 -67 40 -31 90 -73 113 -94 23 -20 56 -40 74
-44 17 -4 57 -25 88 -46 30 -21 63 -39 71 -39 9 0 43 -21 76 -46 124 -95 139
-104 160 -104 12 0 40 -13 61 -28 21 -15 59 -36 83 -46 25 -9 61 -31 80 -48
20 -16 58 -48 85 -71 27 -23 64 -56 81 -73 19 -19 47 -34 71 -38 22 -5 58 -23
84 -45 31 -26 63 -41 105 -51 84 -19 89 -22 196 -130 72 -72 106 -99 138 -108
23 -7 56 -26 74 -42 18 -15 57 -40 87 -53 30 -14 85 -53 123 -87 37 -34 82
-66 100 -71 17 -5 67 -39 111 -75 43 -36 94 -73 114 -81 19 -8 72 -42 116 -75
45 -34 104 -72 133 -84 28 -13 54 -28 58 -35 4 -6 31 -21 59 -34 28 -12 88
-54 133 -92 46 -38 100 -75 120 -81 21 -6 62 -30 92 -52 29 -22 59 -40 66 -40
7 0 50 -25 96 -56 46 -31 143 -86 214 -123 72 -37 155 -83 185 -102 30 -19 93
-54 140 -77 47 -22 116 -62 155 -87 38 -25 75 -45 81 -45 7 0 34 -16 60 -36
78 -60 147 -98 195 -108 14 -3 41 -16 61 -30 19 -13 53 -29 74 -36 22 -7 62
-30 89 -50 28 -21 62 -40 77 -44 15 -3 60 -32 100 -64 73 -58 116 -82 144 -82
8 0 38 -16 67 -35 28 -19 58 -35 66 -35 9 0 47 -15 86 -34 38 -19 90 -39 115
-46 25 -6 72 -25 105 -42 39 -20 95 -38 160 -49 55 -10 123 -29 150 -43 82
-40 339 -67 585 -61 227 6 283 11 320 30 15 8 62 17 104 21 43 4 92 15 109 24
18 10 57 31 89 48 31 17 88 56 126 88 40 32 83 58 98 60 40 4 101 51 166 129
32 37 114 127 182 199 150 156 204 227 212 275 10 62 14 68 79 136 54 57 65
74 71 113 5 31 17 56 36 77 74 77 99 111 110 149 6 23 29 60 49 82 21 23 42
58 48 79 5 20 21 52 35 70 14 19 26 38 26 42 0 5 14 22 31 39 18 16 41 49 52
74 11 25 33 63 49 86 16 22 31 58 35 80 4 24 19 53 38 75 19 22 36 53 39 75 5
29 25 59 76 116 48 54 73 91 80 120 7 24 22 53 36 66 13 12 31 48 40 80 9 31
25 66 35 78 10 11 26 42 36 70 9 27 31 69 50 93 18 24 33 52 33 62 0 21 111
174 133 182 8 3 22 28 31 55 11 32 35 68 71 106 56 58 77 91 89 138 3 14 17
40 31 56 14 17 37 56 51 87 29 67 59 108 132 185 76 78 83 92 92 170 7 67 9
71 70 137 34 37 70 86 80 108 9 22 25 47 34 54 10 8 24 28 33 45 9 17 29 47
45 66 72 86 102 128 118 165 10 22 47 75 82 118 43 52 70 96 82 132 9 29 23
59 32 66 20 17 44 63 44 87 0 10 15 33 34 51 18 18 39 51 45 74 7 23 25 60 40
82 16 22 34 57 41 79 7 21 40 70 74 109 58 67 79 101 157 257 18 36 43 79 55
95 12 17 29 46 37 66 17 43 84 132 166 222 40 44 62 77 65 99 3 18 8 53 11 77
6 44 30 83 97 158 20 22 42 61 48 84 7 24 23 57 37 74 72 88 103 140 116 201
8 35 25 76 37 91 59 76 109 149 114 169 3 11 21 47 41 79 19 33 35 69 35 81 0
26 21 54 118 159 94 102 101 112 117 182 8 32 25 78 38 103 14 25 31 65 37 89
8 29 34 72 73 120 34 41 72 98 85 126 13 27 29 57 37 65 7 8 22 38 33 66 10
29 33 69 50 90 17 22 36 62 43 89 7 28 20 61 29 75 10 14 29 48 44 75 15 28
34 64 44 80 10 17 26 50 35 75 9 25 36 65 60 90 55 58 81 96 96 141 6 20 37
70 68 110 59 79 92 141 93 175 0 43 96 202 181 298 35 41 149 233 149 252 0 6
17 39 39 75 21 35 43 80 50 100 6 19 33 58 59 86 27 28 59 73 73 100 13 26 40
71 60 98 21 28 58 97 84 154 25 58 62 123 80 146 19 22 43 62 54 88 25 57 113
192 176 267 52 63 83 122 92 176 3 21 16 53 29 71 12 19 26 48 29 65 13 56 98
199 162 270 34 38 65 82 68 99 4 16 26 56 51 88 27 37 48 78 56 110 6 28 19
59 27 69 99 112 181 236 215 325 55 143 96 214 166 292 48 52 75 93 87 128 11
31 38 72 70 107 39 43 67 89 113 191 51 112 71 144 120 194 37 38 69 82 85
119 15 33 49 85 77 115 55 60 80 109 104 207 13 52 28 77 86 146 38 46 90 118
115 162 26 43 79 114 119 156 40 43 82 97 94 120 12 23 36 63 55 89 18 25 43
71 54 101 13 33 41 77 71 109 33 36 58 76 72 115 14 38 41 81 74 118 34 38 59
78 70 111 10 32 34 71 61 99 44 48 74 106 88 166 15 70 88 219 168 345 46 73
99 160 117 195 18 34 59 90 90 125 35 39 73 95 100 151 45 93 79 134 296 358
66 68 112 126 128 160 14 29 51 87 83 128 67 85 280 311 363 385 32 28 75 69
96 93 22 24 62 67 91 97 28 29 59 71 69 92 17 36 135 163 341 368 65 64 104
95 131 103 28 9 65 39 133 107 52 53 123 124 158 158 204 200 210 204 253 215
24 6 53 22 65 34 74 81 114 111 159 119 40 8 58 20 123 85 85 84 154 134 184
134 11 0 34 15 51 33 60 63 124 108 162 114 33 5 71 23 195 93 15 8 61 41 102
73 67 52 82 59 151 71 48 8 89 22 113 39 21 14 65 36 97 48 32 12 82 39 110
60 28 22 55 39 59 39 5 0 29 16 54 35 25 19 64 40 87 46 23 6 70 29 106 52 98
62 277 154 500 255 36 16 90 41 120 55 30 13 70 36 89 51 19 14 41 26 49 26
17 0 227 102 295 144 27 16 92 48 145 71 160 70 194 87 267 133 74 47 322 169
415 204 30 12 82 40 116 64 33 24 89 56 125 72 109 49 320 151 409 197 47 24
119 56 160 71 41 14 113 46 158 70 46 24 89 44 95 44 7 0 45 25 85 55 56 41
86 56 130 65 31 6 91 24 132 40 41 16 105 39 142 50 45 14 104 45 180 96 63
43 203 120 318 176 113 55 336 164 495 243 160 78 322 154 360 169 136 51 349
162 420 219 40 33 91 64 120 73 28 9 75 31 106 50 31 18 76 42 101 53 24 10
70 39 100 64 31 25 75 55 98 67 23 12 71 48 106 81 35 32 72 59 82 59 21 0
152 62 193 91 16 11 66 35 111 54 214 86 466 210 548 270 25 18 67 42 95 54
27 12 59 30 70 40 11 10 40 29 64 41 73 37 209 127 259 173 46 42 154 98 622
325 102 49 212 106 245 126 100 61 275 143 354 165 53 14 102 39 170 84 152
100 188 122 321 190 163 83 308 168 361 213 53 44 83 60 145 75 67 16 239 109
321 173 38 29 93 66 123 81 30 15 84 49 120 75 36 27 162 96 280 154 236 116
425 215 481 251 20 13 65 37 101 53 88 40 247 135 325 194 69 51 129 85 215
119 29 11 78 37 108 58 98 66 264 168 310 190 25 12 77 46 115 77 43 35 131
87 230 136 88 43 173 89 190 102 16 13 53 34 80 48 28 13 79 43 115 65 36 22
103 53 149 69 46 15 112 46 147 69 154 98 193 125 308 210 66 50 142 103 168
118 26 15 73 49 103 76 41 36 70 53 108 61 73 18 103 35 177 102 36 33 85 70
110 83 25 13 63 37 85 55 22 18 58 41 80 52 22 11 79 59 126 106 48 48 115
110 149 137 35 28 74 67 87 87 15 22 38 42 57 48 17 5 81 57 141 115 75 71
130 115 172 136 34 17 70 40 79 50 9 10 23 19 31 19 17 0 104 60 146 100 18
17 43 41 57 54 29 27 111 76 128 76 12 0 49 32 113 98 23 23 47 42 53 42 6 0
16 8 23 19 14 22 98 81 116 81 7 0 37 22 67 50 30 27 83 73 118 102 34 29 111
102 170 162 59 61 162 164 230 231 90 89 122 127 122 145 1 32 15 57 68 117
24 26 62 68 84 93 22 25 53 59 67 75 56 63 93 128 88 154 -4 21 3 32 34 59 34
29 39 39 39 77 0 39 4 45 35 64 33 19 35 24 35 70 0 27 4 53 10 56 5 3 7 38 3
84 l-6 79 29 13 c26 13 29 20 32 66 2 28 9 56 16 62 9 8 12 29 9 68 -3 32 1
119 7 193 20 218 12 324 -27 371 -23 27 -25 37 -27 161 -2 143 -11 174 -51
184 -14 3 -34 23 -49 48 -13 23 -36 48 -50 56 -14 7 -26 19 -26 25 0 34 -48
94 -183 228 -154 153 -196 187 -233 187 -13 0 -43 22 -74 54 -64 67 -129 103
-200 111 -36 5 -69 17 -95 35 -39 27 -96 42 -205 55 -31 4 -77 19 -105 35 -50
28 -105 42 -241 59 -39 5 -95 20 -125 35 -67 31 -175 43 -541 56 -306 11 -513
11 -581 0z"/>
<path d="M32335 11970 c9 -29 24 -50 36 -50 15 0 10 13 -17 45 -25 29 -25 29
-19 5z"/>
<path d="M32393 11832 c6 -82 19 -122 38 -122 7 0 8 28 4 83 -6 63 -12 87 -27
102 l-20 20 5 -83z"/>
</g>
</svg>
